# xmcd CD database file
#
# Track frame offsets:
#	150
#	15943
#	27759
#	46649
#	59102
#	77121
#	93891
#	110019
#	126357
#	147335
#	173321
#
# Disc length: 2589 seconds
#
# Revision: 0
# Processed by: cddbd v1.5.2PL0 Copyright (c) Steve Scherf et al.
# Submitted via: CDex 1.51
#
DISCID=830a1b0b
DTITLE=Bob Dellaposta - Baby, I'm A Rich Man
DYEAR=2007
DGENRE=Blues
TTITLE0=Rich Man Blues
TTITLE1=Everybody's Talkin (How Tough They Got It)
TTITLE2=Break Away
TTITLE3=I Choose Love
TTITLE4=Bob Dellaposta's 74th Dream
TTITLE5=Necessary Evil (Blues Jam)
TTITLE6=Spiritual Journey
TTITLE7=I'm So Lonely Blues
TTITLE8=He Wondered
TTITLE9=Rock-N-Roll Past
TTITLE10=Close Friends Never Leave
EXTD=YEAR: 2007
EXTT0=
EXTT1=
EXTT2=
EXTT3=
EXTT4=
EXTT5=
EXTT6=
EXTT7=
EXTT8=
EXTT9=
EXTT10=
PLAYORDER=
